<mxfile host="app.diagrams.net" modified="2024-05-30T13:07:40.439Z" agent="Mozilla/5.0 (Windows NT 10.0; Win64; x64) AppleWebKit/537.36 (KHTML, like Gecko) Chrome/123.0.0.0 Safari/537.36 OPR/109.0.0.0" etag="IeXOjW6kRS7vA7Q9H69S" version="24.4.10" type="github">
  <diagram name="Page-1" id="mpO6CN6qQZyS7VdnXvxC">
    <mxGraphModel dx="643" dy="545" grid="1" gridSize="10" guides="1" tooltips="1" connect="1" arrows="1" fold="1" page="1" pageScale="1" pageWidth="1100" pageHeight="850" math="0" shadow="0">
      <root>
        <mxCell id="0" />
        <mxCell id="1" parent="0" />
        <mxCell id="7F4NbGWEjHwFpx8pUK05-1" value="&lt;font style=&quot;font-size: 24px;&quot;&gt;Player&lt;/font&gt;" style="rounded=0;whiteSpace=wrap;html=1;" vertex="1" parent="1">
          <mxGeometry x="310" y="365" width="120" height="60" as="geometry" />
        </mxCell>
        <mxCell id="7F4NbGWEjHwFpx8pUK05-2" value="&lt;font style=&quot;font-size: 24px;&quot;&gt;Major&lt;/font&gt;" style="rounded=0;whiteSpace=wrap;html=1;" vertex="1" parent="1">
          <mxGeometry x="310" y="120" width="120" height="60" as="geometry" />
        </mxCell>
        <mxCell id="7F4NbGWEjHwFpx8pUK05-3" value="&lt;font style=&quot;font-size: 24px;&quot;&gt;Statistics&lt;/font&gt;" style="rounded=0;whiteSpace=wrap;html=1;" vertex="1" parent="1">
          <mxGeometry x="50" y="250" width="120" height="60" as="geometry" />
        </mxCell>
        <mxCell id="7F4NbGWEjHwFpx8pUK05-4" value="&lt;font style=&quot;font-size: 24px;&quot;&gt;Facility&lt;/font&gt;" style="rounded=0;whiteSpace=wrap;html=1;" vertex="1" parent="1">
          <mxGeometry x="310" y="580" width="120" height="60" as="geometry" />
        </mxCell>
        <mxCell id="7F4NbGWEjHwFpx8pUK05-5" value="&lt;font style=&quot;font-size: 24px;&quot;&gt;Staff&amp;nbsp;&lt;/font&gt;" style="rounded=0;whiteSpace=wrap;html=1;" vertex="1" parent="1">
          <mxGeometry x="640" y="365" width="120" height="60" as="geometry" />
        </mxCell>
        <mxCell id="7F4NbGWEjHwFpx8pUK05-7" value="&lt;font style=&quot;font-size: 24px;&quot;&gt;Merch&lt;/font&gt;" style="rounded=0;whiteSpace=wrap;html=1;" vertex="1" parent="1">
          <mxGeometry x="640" y="660" width="120" height="50" as="geometry" />
        </mxCell>
        <mxCell id="7F4NbGWEjHwFpx8pUK05-8" value="&lt;font style=&quot;font-size: 24px;&quot;&gt;Salesman&lt;/font&gt;" style="rounded=0;whiteSpace=wrap;html=1;" vertex="1" parent="1">
          <mxGeometry x="910" y="240" width="120" height="60" as="geometry" />
        </mxCell>
        <mxCell id="7F4NbGWEjHwFpx8pUK05-9" value="&lt;font style=&quot;font-size: 24px;&quot;&gt;Coach&lt;/font&gt;" style="rounded=0;whiteSpace=wrap;html=1;" vertex="1" parent="1">
          <mxGeometry x="910" y="330" width="120" height="60" as="geometry" />
        </mxCell>
        <mxCell id="7F4NbGWEjHwFpx8pUK05-10" value="&lt;font style=&quot;font-size: 24px;&quot;&gt;Video&amp;nbsp;&lt;/font&gt;&lt;div&gt;&lt;font style=&quot;font-size: 24px;&quot;&gt;Analyst&lt;/font&gt;&lt;/div&gt;" style="rounded=0;whiteSpace=wrap;html=1;" vertex="1" parent="1">
          <mxGeometry x="910" y="410" width="120" height="60" as="geometry" />
        </mxCell>
        <mxCell id="7F4NbGWEjHwFpx8pUK05-11" value="&lt;font style=&quot;font-size: 24px;&quot;&gt;IT Expert&lt;/font&gt;" style="rounded=0;whiteSpace=wrap;html=1;" vertex="1" parent="1">
          <mxGeometry x="910" y="490" width="120" height="60" as="geometry" />
        </mxCell>
        <mxCell id="7F4NbGWEjHwFpx8pUK05-12" value="&lt;font style=&quot;font-size: 24px;&quot;&gt;Role&lt;/font&gt;" style="rounded=0;whiteSpace=wrap;html=1;" vertex="1" parent="1">
          <mxGeometry x="50" y="475" width="120" height="60" as="geometry" />
        </mxCell>
        <mxCell id="7F4NbGWEjHwFpx8pUK05-13" value="&lt;font style=&quot;font-size: 18px;&quot;&gt;plays&lt;/font&gt;" style="rhombus;whiteSpace=wrap;html=1;" vertex="1" parent="1">
          <mxGeometry x="330" y="250" width="80" height="50" as="geometry" />
        </mxCell>
        <mxCell id="7F4NbGWEjHwFpx8pUK05-14" value="&lt;font style=&quot;font-size: 18px;&quot;&gt;Cash prize&lt;/font&gt;" style="rounded=0;whiteSpace=wrap;html=1;" vertex="1" parent="1">
          <mxGeometry x="470" y="262.5" width="90" height="25" as="geometry" />
        </mxCell>
        <mxCell id="7F4NbGWEjHwFpx8pUK05-15" value="&lt;font style=&quot;font-size: 18px;&quot;&gt;clocks&lt;/font&gt;" style="rhombus;whiteSpace=wrap;html=1;" vertex="1" parent="1">
          <mxGeometry x="330" y="480" width="80" height="50" as="geometry" />
        </mxCell>
        <mxCell id="7F4NbGWEjHwFpx8pUK05-16" value="&lt;font style=&quot;font-size: 18px;&quot;&gt;clocks&lt;/font&gt;" style="rhombus;whiteSpace=wrap;html=1;" vertex="1" parent="1">
          <mxGeometry x="470" y="585" width="80" height="50" as="geometry" />
        </mxCell>
        <mxCell id="7F4NbGWEjHwFpx8pUK05-17" value="&lt;font style=&quot;font-size: 18px;&quot;&gt;works&lt;/font&gt;" style="rhombus;whiteSpace=wrap;html=1;" vertex="1" parent="1">
          <mxGeometry x="660" y="520" width="80" height="50" as="geometry" />
        </mxCell>
        <mxCell id="7F4NbGWEjHwFpx8pUK05-18" value="" style="triangle;whiteSpace=wrap;html=1;" vertex="1" parent="1">
          <mxGeometry x="800" y="370" width="30" height="40" as="geometry" />
        </mxCell>
        <mxCell id="7F4NbGWEjHwFpx8pUK05-19" value="&lt;font style=&quot;font-size: 18px;&quot;&gt;has&lt;/font&gt;" style="rhombus;whiteSpace=wrap;html=1;" vertex="1" parent="1">
          <mxGeometry x="210" y="255" width="80" height="50" as="geometry" />
        </mxCell>
        <mxCell id="7F4NbGWEjHwFpx8pUK05-20" value="&lt;font style=&quot;font-size: 18px;&quot;&gt;plays&lt;/font&gt;" style="rhombus;whiteSpace=wrap;html=1;" vertex="1" parent="1">
          <mxGeometry x="70" y="370" width="80" height="50" as="geometry" />
        </mxCell>
        <mxCell id="7F4NbGWEjHwFpx8pUK05-21" value="&lt;font style=&quot;font-size: 18px;&quot;&gt;travel to&lt;/font&gt;" style="rhombus;whiteSpace=wrap;html=1;" vertex="1" parent="1">
          <mxGeometry x="650" y="120" width="100" height="60" as="geometry" />
        </mxCell>
        <mxCell id="7F4NbGWEjHwFpx8pUK05-22" value="" style="endArrow=none;html=1;rounded=0;exitX=0.5;exitY=1;exitDx=0;exitDy=0;entryX=0.5;entryY=0;entryDx=0;entryDy=0;" edge="1" parent="1" source="7F4NbGWEjHwFpx8pUK05-1" target="7F4NbGWEjHwFpx8pUK05-15">
          <mxGeometry width="50" height="50" relative="1" as="geometry">
            <mxPoint x="410" y="500" as="sourcePoint" />
            <mxPoint x="460" y="450" as="targetPoint" />
          </mxGeometry>
        </mxCell>
        <mxCell id="7F4NbGWEjHwFpx8pUK05-23" value="" style="endArrow=none;html=1;rounded=0;entryX=0.5;entryY=0;entryDx=0;entryDy=0;" edge="1" parent="1" target="7F4NbGWEjHwFpx8pUK05-4">
          <mxGeometry width="50" height="50" relative="1" as="geometry">
            <mxPoint x="370" y="530" as="sourcePoint" />
            <mxPoint x="380" y="490" as="targetPoint" />
          </mxGeometry>
        </mxCell>
        <mxCell id="7F4NbGWEjHwFpx8pUK05-24" value="" style="endArrow=none;html=1;rounded=0;exitX=0;exitY=0.5;exitDx=0;exitDy=0;entryX=1;entryY=0.5;entryDx=0;entryDy=0;" edge="1" parent="1" source="7F4NbGWEjHwFpx8pUK05-1" target="7F4NbGWEjHwFpx8pUK05-20">
          <mxGeometry width="50" height="50" relative="1" as="geometry">
            <mxPoint x="390" y="445" as="sourcePoint" />
            <mxPoint x="390" y="500" as="targetPoint" />
          </mxGeometry>
        </mxCell>
        <mxCell id="7F4NbGWEjHwFpx8pUK05-25" value="" style="endArrow=none;html=1;rounded=0;exitX=0.5;exitY=1;exitDx=0;exitDy=0;entryX=0.5;entryY=0;entryDx=0;entryDy=0;" edge="1" parent="1" source="7F4NbGWEjHwFpx8pUK05-20" target="7F4NbGWEjHwFpx8pUK05-12">
          <mxGeometry width="50" height="50" relative="1" as="geometry">
            <mxPoint x="400" y="455" as="sourcePoint" />
            <mxPoint x="400" y="510" as="targetPoint" />
          </mxGeometry>
        </mxCell>
        <mxCell id="7F4NbGWEjHwFpx8pUK05-27" value="" style="endArrow=none;html=1;rounded=0;entryX=1;entryY=0.5;entryDx=0;entryDy=0;exitX=0;exitY=0.5;exitDx=0;exitDy=0;" edge="1" parent="1" source="7F4NbGWEjHwFpx8pUK05-19" target="7F4NbGWEjHwFpx8pUK05-3">
          <mxGeometry width="50" height="50" relative="1" as="geometry">
            <mxPoint x="410" y="500" as="sourcePoint" />
            <mxPoint x="460" y="450" as="targetPoint" />
          </mxGeometry>
        </mxCell>
        <mxCell id="7F4NbGWEjHwFpx8pUK05-28" value="" style="endArrow=none;html=1;rounded=0;exitX=0.5;exitY=1;exitDx=0;exitDy=0;entryX=0;entryY=0.25;entryDx=0;entryDy=0;" edge="1" parent="1" source="7F4NbGWEjHwFpx8pUK05-19" target="7F4NbGWEjHwFpx8pUK05-1">
          <mxGeometry width="50" height="50" relative="1" as="geometry">
            <mxPoint x="420" y="475" as="sourcePoint" />
            <mxPoint x="420" y="530" as="targetPoint" />
          </mxGeometry>
        </mxCell>
        <mxCell id="7F4NbGWEjHwFpx8pUK05-29" value="" style="endArrow=none;html=1;rounded=0;exitX=0.5;exitY=1;exitDx=0;exitDy=0;entryX=0.5;entryY=0;entryDx=0;entryDy=0;" edge="1" parent="1" source="7F4NbGWEjHwFpx8pUK05-13" target="7F4NbGWEjHwFpx8pUK05-1">
          <mxGeometry width="50" height="50" relative="1" as="geometry">
            <mxPoint x="430" y="485" as="sourcePoint" />
            <mxPoint x="430" y="540" as="targetPoint" />
          </mxGeometry>
        </mxCell>
        <mxCell id="7F4NbGWEjHwFpx8pUK05-30" value="" style="endArrow=none;html=1;rounded=0;exitX=0.5;exitY=1;exitDx=0;exitDy=0;entryX=0.5;entryY=0;entryDx=0;entryDy=0;" edge="1" parent="1" source="7F4NbGWEjHwFpx8pUK05-2" target="7F4NbGWEjHwFpx8pUK05-13">
          <mxGeometry width="50" height="50" relative="1" as="geometry">
            <mxPoint x="440" y="495" as="sourcePoint" />
            <mxPoint x="440" y="550" as="targetPoint" />
          </mxGeometry>
        </mxCell>
        <mxCell id="7F4NbGWEjHwFpx8pUK05-31" value="" style="endArrow=none;html=1;rounded=0;exitX=1;exitY=0.5;exitDx=0;exitDy=0;entryX=0;entryY=0.5;entryDx=0;entryDy=0;" edge="1" parent="1" source="7F4NbGWEjHwFpx8pUK05-13" target="7F4NbGWEjHwFpx8pUK05-14">
          <mxGeometry width="50" height="50" relative="1" as="geometry">
            <mxPoint x="450" y="505" as="sourcePoint" />
            <mxPoint x="450" y="560" as="targetPoint" />
          </mxGeometry>
        </mxCell>
        <mxCell id="7F4NbGWEjHwFpx8pUK05-32" value="" style="endArrow=none;html=1;rounded=0;exitX=0.5;exitY=1;exitDx=0;exitDy=0;entryX=0.5;entryY=0;entryDx=0;entryDy=0;" edge="1" parent="1" source="7F4NbGWEjHwFpx8pUK05-21" target="7F4NbGWEjHwFpx8pUK05-5">
          <mxGeometry width="50" height="50" relative="1" as="geometry">
            <mxPoint x="460" y="515" as="sourcePoint" />
            <mxPoint x="460" y="570" as="targetPoint" />
          </mxGeometry>
        </mxCell>
        <mxCell id="7F4NbGWEjHwFpx8pUK05-33" value="&lt;font style=&quot;font-size: 18px;&quot;&gt;works with&lt;/font&gt;" style="rhombus;whiteSpace=wrap;html=1;" vertex="1" parent="1">
          <mxGeometry x="510" y="357.5" width="80" height="75" as="geometry" />
        </mxCell>
        <mxCell id="7F4NbGWEjHwFpx8pUK05-34" value="" style="endArrow=none;html=1;rounded=0;exitX=1;exitY=0.5;exitDx=0;exitDy=0;entryX=0;entryY=0.5;entryDx=0;entryDy=0;" edge="1" parent="1" source="7F4NbGWEjHwFpx8pUK05-33" target="7F4NbGWEjHwFpx8pUK05-5">
          <mxGeometry width="50" height="50" relative="1" as="geometry">
            <mxPoint x="710" y="200" as="sourcePoint" />
            <mxPoint x="710" y="375" as="targetPoint" />
          </mxGeometry>
        </mxCell>
        <mxCell id="7F4NbGWEjHwFpx8pUK05-35" value="" style="endArrow=none;html=1;rounded=0;exitX=1;exitY=0.5;exitDx=0;exitDy=0;entryX=0;entryY=0.5;entryDx=0;entryDy=0;" edge="1" parent="1" source="7F4NbGWEjHwFpx8pUK05-1" target="7F4NbGWEjHwFpx8pUK05-33">
          <mxGeometry width="50" height="50" relative="1" as="geometry">
            <mxPoint x="720" y="210" as="sourcePoint" />
            <mxPoint x="720" y="385" as="targetPoint" />
          </mxGeometry>
        </mxCell>
        <mxCell id="7F4NbGWEjHwFpx8pUK05-36" value="" style="endArrow=none;html=1;rounded=0;exitX=0;exitY=0.5;exitDx=0;exitDy=0;" edge="1" parent="1" source="7F4NbGWEjHwFpx8pUK05-18">
          <mxGeometry width="50" height="50" relative="1" as="geometry">
            <mxPoint x="730" y="220" as="sourcePoint" />
            <mxPoint x="760" y="390" as="targetPoint" />
          </mxGeometry>
        </mxCell>
        <mxCell id="7F4NbGWEjHwFpx8pUK05-37" value="" style="endArrow=none;html=1;rounded=0;exitX=0;exitY=0.5;exitDx=0;exitDy=0;entryX=0.5;entryY=0;entryDx=0;entryDy=0;" edge="1" parent="1" source="7F4NbGWEjHwFpx8pUK05-8" target="7F4NbGWEjHwFpx8pUK05-18">
          <mxGeometry width="50" height="50" relative="1" as="geometry">
            <mxPoint x="740" y="230" as="sourcePoint" />
            <mxPoint x="740" y="405" as="targetPoint" />
          </mxGeometry>
        </mxCell>
        <mxCell id="7F4NbGWEjHwFpx8pUK05-38" value="" style="endArrow=none;html=1;rounded=0;exitX=0;exitY=0.5;exitDx=0;exitDy=0;" edge="1" parent="1" source="7F4NbGWEjHwFpx8pUK05-9">
          <mxGeometry width="50" height="50" relative="1" as="geometry">
            <mxPoint x="750" y="240" as="sourcePoint" />
            <mxPoint x="830" y="390" as="targetPoint" />
          </mxGeometry>
        </mxCell>
        <mxCell id="7F4NbGWEjHwFpx8pUK05-39" value="" style="endArrow=none;html=1;rounded=0;exitX=0;exitY=0.5;exitDx=0;exitDy=0;entryX=0.5;entryY=1;entryDx=0;entryDy=0;" edge="1" parent="1" source="7F4NbGWEjHwFpx8pUK05-10" target="7F4NbGWEjHwFpx8pUK05-18">
          <mxGeometry width="50" height="50" relative="1" as="geometry">
            <mxPoint x="760" y="250" as="sourcePoint" />
            <mxPoint x="760" y="425" as="targetPoint" />
          </mxGeometry>
        </mxCell>
        <mxCell id="7F4NbGWEjHwFpx8pUK05-40" value="" style="endArrow=none;html=1;rounded=0;entryX=0;entryY=0.5;entryDx=0;entryDy=0;exitX=0.32;exitY=0.853;exitDx=0;exitDy=0;exitPerimeter=0;" edge="1" parent="1" source="7F4NbGWEjHwFpx8pUK05-18" target="7F4NbGWEjHwFpx8pUK05-11">
          <mxGeometry width="50" height="50" relative="1" as="geometry">
            <mxPoint x="810" y="400" as="sourcePoint" />
            <mxPoint x="770" y="435" as="targetPoint" />
          </mxGeometry>
        </mxCell>
        <mxCell id="7F4NbGWEjHwFpx8pUK05-41" value="" style="endArrow=none;html=1;rounded=0;exitX=1;exitY=0.5;exitDx=0;exitDy=0;entryX=0;entryY=0.5;entryDx=0;entryDy=0;" edge="1" parent="1" source="7F4NbGWEjHwFpx8pUK05-4" target="7F4NbGWEjHwFpx8pUK05-16">
          <mxGeometry width="50" height="50" relative="1" as="geometry">
            <mxPoint x="780" y="270" as="sourcePoint" />
            <mxPoint x="780" y="445" as="targetPoint" />
          </mxGeometry>
        </mxCell>
        <mxCell id="7F4NbGWEjHwFpx8pUK05-42" value="" style="endArrow=none;html=1;rounded=0;entryX=1;entryY=0.5;entryDx=0;entryDy=0;" edge="1" parent="1" target="7F4NbGWEjHwFpx8pUK05-16">
          <mxGeometry width="50" height="50" relative="1" as="geometry">
            <mxPoint x="600" y="610" as="sourcePoint" />
            <mxPoint x="790" y="455" as="targetPoint" />
          </mxGeometry>
        </mxCell>
        <mxCell id="7F4NbGWEjHwFpx8pUK05-43" value="" style="endArrow=none;html=1;rounded=0;" edge="1" parent="1">
          <mxGeometry width="50" height="50" relative="1" as="geometry">
            <mxPoint x="600" y="410" as="sourcePoint" />
            <mxPoint x="600" y="610" as="targetPoint" />
          </mxGeometry>
        </mxCell>
        <mxCell id="7F4NbGWEjHwFpx8pUK05-44" value="" style="endArrow=none;html=1;rounded=0;entryX=0;entryY=0.75;entryDx=0;entryDy=0;" edge="1" parent="1" target="7F4NbGWEjHwFpx8pUK05-5">
          <mxGeometry width="50" height="50" relative="1" as="geometry">
            <mxPoint x="600" y="410" as="sourcePoint" />
            <mxPoint x="810" y="475" as="targetPoint" />
          </mxGeometry>
        </mxCell>
        <mxCell id="7F4NbGWEjHwFpx8pUK05-45" value="" style="endArrow=none;html=1;rounded=0;entryX=0.5;entryY=1;entryDx=0;entryDy=0;" edge="1" parent="1" source="7F4NbGWEjHwFpx8pUK05-17" target="7F4NbGWEjHwFpx8pUK05-5">
          <mxGeometry width="50" height="50" relative="1" as="geometry">
            <mxPoint x="580" y="500" as="sourcePoint" />
            <mxPoint x="630" y="450" as="targetPoint" />
          </mxGeometry>
        </mxCell>
        <mxCell id="7F4NbGWEjHwFpx8pUK05-46" value="" style="endArrow=none;html=1;rounded=0;exitX=0.5;exitY=1;exitDx=0;exitDy=0;entryX=0.5;entryY=0;entryDx=0;entryDy=0;" edge="1" parent="1" source="7F4NbGWEjHwFpx8pUK05-17" target="7F4NbGWEjHwFpx8pUK05-7">
          <mxGeometry width="50" height="50" relative="1" as="geometry">
            <mxPoint x="820" y="310" as="sourcePoint" />
            <mxPoint x="820" y="485" as="targetPoint" />
          </mxGeometry>
        </mxCell>
        <mxCell id="7F4NbGWEjHwFpx8pUK05-47" value="" style="endArrow=none;html=1;rounded=0;exitX=0;exitY=0.5;exitDx=0;exitDy=0;entryX=1;entryY=0.5;entryDx=0;entryDy=0;" edge="1" parent="1" source="7F4NbGWEjHwFpx8pUK05-21" target="7F4NbGWEjHwFpx8pUK05-2">
          <mxGeometry width="50" height="50" relative="1" as="geometry">
            <mxPoint x="710" y="200" as="sourcePoint" />
            <mxPoint x="710" y="375" as="targetPoint" />
          </mxGeometry>
        </mxCell>
        <mxCell id="7F4NbGWEjHwFpx8pUK05-48" value="&lt;u&gt;&lt;font style=&quot;font-size: 14px;&quot;&gt;playerID&lt;/font&gt;&lt;/u&gt;" style="ellipse;whiteSpace=wrap;html=1;" vertex="1" parent="1">
          <mxGeometry x="250" y="432.5" width="60" height="27.5" as="geometry" />
        </mxCell>
        <mxCell id="7F4NbGWEjHwFpx8pUK05-49" value="&lt;font style=&quot;font-size: 14px;&quot;&gt;Name&lt;/font&gt;" style="ellipse;whiteSpace=wrap;html=1;" vertex="1" parent="1">
          <mxGeometry x="410" y="445" width="60" height="25" as="geometry" />
        </mxCell>
      </root>
    </mxGraphModel>
  </diagram>
</mxfile>
